<svg width="321" height="326" viewBox="0 0 321 326" fill="none" xmlns="http://www.w3.org/2000/svg">
<path d="M63.0534 106.166C63.0534 106.166 49.8116 112.466 48.6925 125.673C47.5735 138.881 81.0711 175.089 81.0711 175.089L172.944 117.285L139.234 66.4195L63.0534 106.166Z" fill="#C7DCF9"/>
<path d="M84.9663 117.101C84.9663 117.101 75.6294 128.077 73.3209 139.681C71.0124 151.284 71.9888 171.662 73.0151 179.25C88.9144 192.09 147.285 176.496 147.285 176.496L199.766 105.596C199.766 105.596 188.866 87.9013 183.621 83.2024C178.376 78.5035 162.052 73.3217 144.204 81.9417C134.467 97.9493 84.9663 117.101 84.9663 117.101Z" fill="#E1ECFF"/>
<g style="mix-blend-mode:multiply">
<path d="M80.8478 122.729C80.8478 122.729 103.459 128.339 127.722 117.035C151.986 105.731 154.672 78.3214 154.672 78.3214L144.192 81.9465L84.9662 117.101L80.8478 122.729Z" fill="#E1ECFF"/>
</g>
<path d="M176.551 199.798C176.551 199.798 204.546 198.091 212.544 199.569C220.542 201.048 244.53 246.745 253.445 250.674C262.36 254.602 269.17 246.619 278.282 240.417C287.394 234.215 295.635 226.898 295.718 224.071C295.801 221.243 291.014 210.291 287.376 208.261C283.738 206.232 273.608 206.754 268.443 210.575C259.055 189.503 245.654 158.752 235.022 155.112C224.39 151.471 192.915 151.52 192.915 151.52L176.551 199.798Z" fill="#E1ECFF"/>
<g style="mix-blend-mode:multiply" opacity="0.51">
<path d="M204.595 177.189C204.595 177.189 227.547 178.146 234.413 186.2C241.279 194.255 257.251 245.296 271.295 245.583C272.652 262.374 244.147 270.394 244.147 270.394L169.645 198.057L204.595 177.189Z" fill="#E1ECFF"/>
</g>
<path d="M101.086 200.619C101.086 200.619 120.726 235.547 136.996 244.338C153.265 253.129 181.485 250.426 189.719 256.346C197.952 262.267 198.392 293.345 206.74 301.022C215.088 308.699 226.395 312.985 236.584 311.37C246.774 309.754 254.645 304.283 254.438 299.662C254.231 295.042 253.549 291.068 248.565 288.932C243.581 286.796 236.657 285.205 236.171 282.356C235.686 279.506 227.29 236.194 224.228 224.475C221.167 212.755 202.495 197.425 179.306 190.632C156.668 174.135 124.275 184.042 124.275 184.042L101.086 200.619Z" fill="#E1ECFF"/>
<g style="mix-blend-mode:multiply">
<path d="M106.743 209.937C106.743 209.937 126.558 209.613 143.767 200.626C139.161 182.808 128.346 178.184 128.346 178.184L101.086 200.619L106.743 209.937Z" fill="#E1ECFF"/>
</g>
<path d="M121.358 19.6308C105.334 12.3949 72.7345 11.7878 54.4008 37.95C36.0672 64.1121 47.7743 89.1727 56.9892 100.586C66.6403 112.565 98.1949 129.739 129.273 109.514C160.352 89.2898 160.239 37.1951 121.358 19.6308Z" fill="#E1ECFF"/>
<path d="M119.721 34.9836C133.679 37.3383 143.902 56.0114 140.533 74.7771C137.164 93.5428 122.107 107.023 104.275 108.326C86.4439 109.629 67.8841 98.6453 66.444 75.8627C65.0639 53.9685 89.4096 29.873 119.721 34.9836Z" fill="#1C3177"/>
<g style="mix-blend-mode:multiply">
<path d="M89.8647 181.808C107.203 172.294 92.5349 154.23 110.086 148.713C133.836 150.472 140.262 148.833 140.262 148.833C140.262 148.833 97.9234 191.394 89.8647 181.808Z" fill="#E1ECFF"/>
</g>
<path d="M101.357 130.072L136.313 204.71L178.384 200.864L215.288 173.864L224.421 138.229L190.892 56.4478L179.997 96.5266L146.813 126.777L101.357 130.072Z" fill="#FF97C9"/>
<path d="M89.8648 181.808C99.6864 180.342 104.282 173.572 107.083 170.517C108.509 168.958 108.119 167.702 107.068 163.552C106.016 159.403 108.39 154.913 111.907 152.823C114.271 158.07 116.797 158.925 118.676 158.545C120.556 158.165 121.74 146.701 127.949 146.383C134.158 146.065 139.685 153.936 140.79 157.978C141.895 162.02 138.678 173.978 134.205 182.52C129.732 191.062 123.327 201.695 107.579 205.949C91.8321 210.203 82.2072 202.664 76.2824 192.713C74.2832 189.355 73.3229 184.592 73.0178 179.234C73.0178 179.234 76.9093 183.711 89.8648 181.808Z" fill="#E1ECFF"/>
<path d="M202.439 84.6143C202.439 84.6143 204.757 90.6683 203.639 93.1635C202.521 95.6587 200.911 97.7691 199.838 100.941C198.766 104.112 201.447 115.612 207.219 117.229C212.992 118.845 217.305 113.305 218.59 110.179C219.874 107.054 218.514 99.1665 215.936 93.7772C213.358 88.3879 208.88 83.7458 202.439 84.6143Z" fill="#E1ECFF"/>
<path d="M203.741 7.36586L205.178 9.84149C205.265 9.99156 205.386 10.1183 205.532 10.2107C205.679 10.3031 205.845 10.3584 206.018 10.3717L208.874 10.5811C209.074 10.5961 209.265 10.6667 209.427 10.7851C209.588 10.9034 209.713 11.0647 209.788 11.2505C209.862 11.4364 209.883 11.6394 209.848 11.8366C209.813 12.0337 209.723 12.217 209.589 12.3658L207.68 14.5044C207.563 14.6333 207.48 14.7885 207.438 14.9567C207.395 15.1249 207.394 15.3009 207.435 15.4695L208.104 18.2381C208.151 18.4323 208.143 18.6357 208.081 18.8255C208.019 19.0153 207.904 19.1839 207.751 19.3122C207.598 19.4404 207.412 19.5233 207.214 19.5513C207.016 19.5794 206.815 19.5515 206.632 19.4709L204.009 18.3133C203.851 18.2427 203.678 18.2119 203.505 18.2235C203.332 18.2352 203.164 18.289 203.017 18.3802L200.574 19.8795C200.403 19.9851 200.207 20.0407 200.006 20.04C199.806 20.0393 199.61 19.9825 199.44 19.8758C199.27 19.7691 199.134 19.617 199.046 19.4367C198.959 19.2564 198.924 19.0551 198.945 18.8558L199.24 16.0222C199.258 15.8496 199.233 15.6753 199.169 15.5144C199.104 15.3534 199.001 15.2107 198.868 15.0986L196.689 13.2358C196.536 13.1064 196.422 12.9368 196.361 12.7462C196.3 12.5555 196.293 12.3515 196.342 12.1573C196.391 11.9631 196.493 11.7866 196.638 11.6476C196.782 11.5086 196.962 11.4129 197.158 11.3712L199.96 10.7803C200.129 10.7439 200.287 10.6668 200.419 10.5555C200.552 10.4443 200.656 10.3024 200.721 10.1421L201.813 7.49594C201.888 7.30913 202.015 7.14739 202.178 7.02921C202.342 6.91103 202.535 6.84117 202.736 6.8276C202.937 6.81404 203.138 6.85732 203.316 6.95249C203.494 7.04767 203.641 7.19092 203.741 7.36586Z" fill="#FEC272"/>
<path d="M86.6431 287.508L87.8484 289.585C87.9204 289.712 88.0225 289.818 88.1455 289.895C88.2685 289.973 88.4087 290.018 88.5536 290.028L90.9497 290.212C91.1167 290.225 91.2767 290.285 91.4117 290.384C91.5468 290.483 91.6513 290.618 91.7137 290.774C91.776 290.929 91.7936 291.099 91.7645 291.264C91.7354 291.429 91.6607 291.583 91.5489 291.707L89.9451 293.496C89.8466 293.605 89.7765 293.737 89.7413 293.879C89.706 294.022 89.7066 294.171 89.743 294.313L90.3024 296.647C90.3409 296.81 90.3334 296.981 90.2807 297.139C90.228 297.298 90.1321 297.439 90.0038 297.547C89.8755 297.654 89.7198 297.724 89.5542 297.748C89.3886 297.772 89.2195 297.75 89.0659 297.683L86.8698 296.71C86.7368 296.652 86.5917 296.626 86.4468 296.636C86.3019 296.646 86.1615 296.69 86.0375 296.766L83.9995 298.017C83.8565 298.105 83.6916 298.151 83.5236 298.15C83.3556 298.15 83.1912 298.102 83.0491 298.012C82.907 297.922 82.7928 297.795 82.7197 297.643C82.6465 297.492 82.6172 297.323 82.6351 297.156L82.876 294.768C82.891 294.622 82.8703 294.475 82.8156 294.338C82.7609 294.202 82.6738 294.081 82.562 293.986L80.7365 292.429C80.609 292.32 80.5144 292.178 80.4634 292.018C80.4124 291.859 80.407 291.688 80.4479 291.526C80.4888 291.363 80.5743 291.215 80.6948 291.099C80.8152 290.982 80.9659 290.902 81.1296 290.867L83.4753 290.363C83.6179 290.333 83.751 290.269 83.8631 290.176C83.9752 290.083 84.0629 289.964 84.1186 289.829L85.034 287.609C85.0986 287.454 85.2052 287.32 85.3419 287.223C85.4786 287.125 85.6398 287.068 85.8073 287.058C85.9748 287.047 86.1419 287.084 86.2896 287.163C86.4374 287.243 86.5598 287.363 86.6431 287.508Z" fill="#FEC272"/>
<g style="mix-blend-mode:soft-light" opacity="0.48">
<path d="M109.281 58.7998C118.982 55.9652 126.034 50.8855 125.031 47.454C124.029 44.0226 115.352 43.5388 105.65 46.3735C95.9493 49.2082 88.8978 54.2879 89.9004 57.7193C90.9031 61.1507 99.5802 61.6345 109.281 58.7998Z" fill="white"/>
</g>
<g style="mix-blend-mode:multiply">
<path d="M139.284 169.624C139.284 169.624 127.273 160.264 125.221 160.403C123.168 160.541 118.242 168.913 119.617 170.95C120.993 172.988 127.791 179.507 134.886 181.175C136.849 176.726 139.284 169.624 139.284 169.624Z" fill="#E1ECFF"/>
</g>
<g style="mix-blend-mode:multiply" opacity="0.5">
<path d="M146.814 126.777L178.384 200.864L215.288 173.864L179.997 96.5266L146.814 126.777Z" fill="#FF97C9"/>
</g>
<g style="mix-blend-mode:multiply">
<path d="M227.474 238.815C223.731 242.367 219.454 245.31 214.798 247.536C210.429 249.567 209.151 253.207 210.945 259.606C212.739 266.004 214.182 276.073 217.163 278.549C220.144 281.025 229.683 278.958 234.259 272.427C231.872 260.329 227.474 238.815 227.474 238.815Z" fill="#E1ECFF"/>
</g>
<g style="mix-blend-mode:multiply">
<path d="M249.121 170.882C249.121 170.882 243.683 173.701 244.478 177.559C245.273 181.416 252.264 199.849 254.635 201.393C257.007 202.938 263.482 199.478 263.482 199.478C255.313 180.51 249.121 170.882 249.121 170.882Z" fill="#E1ECFF"/>
</g>
<path d="M15.7542 231.858C10.6778 222.923 24.5243 212.061 36.9208 211.94C49.3172 211.82 55.2759 222.87 59.9363 226.828C69.6701 235.087 69.9676 243.79 63.8932 247.95C57.8187 252.11 22.4722 243.677 15.7542 231.858Z" fill="#99ADF9"/>
<path d="M255.217 71.9865C251.403 69.0763 254.109 54.0052 262.382 49.9622C270.655 45.9192 281.475 49.0001 284.133 54.794C286.79 60.5879 263.036 77.9469 255.217 71.9865Z" fill="#99ADF9"/>
<path d="M297.439 77.1059C295.772 79.8592 295.048 87.4287 299.031 88.4986C303.015 89.5685 305.44 81.6671 303.801 77.75C302.162 73.8329 298.553 75.2661 297.439 77.1059Z" fill="#99ADF9"/>
<path opacity="0.44" d="M296.143 16.1634C293.33 17.7278 288.937 23.9329 291.867 26.8425C294.796 29.7521 300.818 24.0963 301.342 19.8846C301.866 15.6729 298.022 15.1202 296.143 16.1634Z" fill="#99ADF9"/>
<path opacity="0.44" d="M38.8061 269.338C36.1583 267.507 28.653 266.305 27.3331 270.216C26.0132 274.128 33.749 277.019 37.7485 275.648C41.7479 274.277 40.5689 270.562 38.8061 269.338Z" fill="#99ADF9"/>
<g style="mix-blend-mode:multiply" opacity="0.64">
<path d="M57.5768 224.443C53.1639 225.585 54.1537 229.534 55.8305 233.058C57.5072 236.583 62.6186 237.275 65.9527 233.726C63.2733 228.388 57.5768 224.443 57.5768 224.443Z" fill="#99ADF9"/>
</g>
<g style="mix-blend-mode:multiply" opacity="0.64">
<path d="M31.4769 220.146C28.2998 220.718 26.0033 225.527 28.5136 229.133C31.0238 232.738 35.5099 235.185 37.9017 233.994C40.2934 232.804 40.3321 227.238 38.3158 223.805C36.2995 220.371 34.5308 219.594 31.4769 220.146Z" fill="#99ADF9"/>
</g>
<g style="mix-blend-mode:multiply" opacity="0.64">
<path d="M273.938 52.3905C272.219 53.0692 270.566 55.0899 270.861 57.1321C271.155 59.1743 273.069 60.8461 274.997 60.4708C276.925 60.0956 278.37 56.8427 277.818 54.6129C277.265 52.3831 275.249 51.8759 273.938 52.3905Z" fill="#99ADF9"/>
</g>
<g style="mix-blend-mode:multiply" opacity="0.64">
<path d="M255.605 57.6465C255.605 57.6465 258.168 59.8855 257.951 62.6374C257.735 65.3894 253.58 65.4163 253.58 65.4163C253.58 65.4163 253.883 60.7291 255.605 57.6465Z" fill="#99ADF9"/>
</g>
</svg>
